<?xml version="1.0" encoding="UTF-8"?>
<!-- Generator: visioncortex VTracer -->
<svg id="svg" version="1.1" xmlns="http://www.w3.org/2000/svg" style="display: block;" viewBox="0 0 1428 790"><path d="M0 0 C9.76432593 7.32324445 14.40238353 15.26263987 16.11907196 27.25139046 C17.11626853 36.35052099 16.79220718 45.58546432 16.77441406 54.72436523 C16.77712813 57.07166655 16.78069139 59.41896701 16.78503418 61.76626587 C16.79411946 68.11650279 16.79062758 74.46667441 16.78427601 80.81691241 C16.77970322 86.81946769 16.78320765 92.82201719 16.7861304 98.82457233 C16.79182246 111.45892266 16.78529742 124.09324389 16.77452967 136.72758944 C16.76563037 147.50110621 16.76711834 158.27457975 16.77636719 169.0480957 C16.78715095 181.61507773 16.79123652 194.18203415 16.78514266 206.74902016 C16.78450572 208.09855496 16.78387698 209.44808977 16.78325653 210.79762459 C16.78294798 211.46124718 16.78263943 212.12486977 16.78232153 212.80860214 C16.78061603 217.41934338 16.78356439 222.03006741 16.78821564 226.6408062 C16.86876773 319.4279642 5.21151784 412.93629847 -60.4140625 484.1640625 C-62.25752657 486.17100358 -64.03216593 488.21709117 -65.796875 490.29296875 C-68.99986046 493.96431529 -72.37552588 497.45144828 -75.796875 500.91796875 C-76.58928589 501.72983643 -76.58928589 501.72983643 -77.39770508 502.55810547 C-78.72106352 503.88466817 -80.09884288 505.15648275 -81.484375 506.41796875 C-82.144375 506.41796875 -82.804375 506.41796875 -83.484375 506.41796875 C-83.484375 507.07796875 -83.484375 507.73796875 -83.484375 508.41796875 C-85.07421875 509.90625 -85.07421875 509.90625 -87.421875 511.73046875 C-88.33324219 512.43945312 -89.24460937 513.1484375 -90.18359375 513.87890625 C-90.70356934 514.27819336 -91.22354492 514.67748047 -91.75927734 515.08886719 C-93.6620157 516.55483203 -95.55148685 518.03708191 -97.44140625 519.51953125 C-106.16937955 526.32664533 -115.01262591 532.69016296 -124.484375 538.41796875 C-125.14937012 538.82112305 -125.81436523 539.22427734 -126.49951172 539.63964844 C-130.79076654 542.22852974 -135.11011502 544.76366874 -139.45849609 547.25537109 C-141.27111966 548.29558722 -143.07558507 549.34998938 -144.87890625 550.40625 C-214.55551628 589.58413434 -299.91670926 595.17916612 -376 574.30078125 C-415.53322457 563.04430258 -452.24032209 543.88413289 -484.484375 518.41796875 C-485.97130859 517.25007812 -485.97130859 517.25007812 -487.48828125 516.05859375 C-502.85763032 503.72813446 -517.34784089 489.95507763 -529.484375 474.41796875 C-530.55220483 473.10060466 -531.62131224 471.78427556 -532.69140625 470.46875 C-564.48075663 431.00672165 -584.16730533 383.20383126 -592.484375 333.41796875 C-592.64663574 332.46986328 -592.80889648 331.52175781 -592.97607422 330.54492188 C-594.66658778 320.43324321 -595.75225116 310.42622048 -595.859375 300.16796875 C-595.87331299 299.33491211 -595.88725098 298.50185547 -595.90161133 297.64355469 C-595.83079333 288.49423679 -593.54004262 280.59899939 -587.65234375 273.53125 C-579.43303742 265.51927753 -571.80778853 263.13277825 -560.69946289 263.09887695 C-554.62484987 263.20547324 -549.81741457 264.41998918 -544.484375 267.41796875 C-543.84113281 267.75699219 -543.19789063 268.09601563 -542.53515625 268.4453125 C-534.95569122 273.06533348 -530.85354924 282.14279368 -528.484375 290.41796875 C-527.71004918 294.64740244 -527.19664054 298.90135805 -526.671875 303.16796875 C-523.84232786 324.32812114 -519.7575951 345.3042647 -512.484375 365.41796875 C-512.07179443 366.57474121 -512.07179443 366.57474121 -511.65087891 367.75488281 C-507.81023016 378.35619978 -503.13469561 388.45336167 -497.984375 398.48046875 C-497.46286865 399.50285645 -496.9413623 400.52524414 -496.40405273 401.57861328 C-492.67494416 408.6763403 -488.31934287 415.03296322 -483.484375 421.41796875 C-482.13020833 423.31380208 -480.77604167 425.20963542 -479.421875 427.10546875 C-476.41763555 431.25786308 -473.22661506 435.10989404 -469.734375 438.859375 C-468.484375 440.41796875 -468.484375 440.41796875 -468.484375 442.41796875 C-467.824375 442.41796875 -467.164375 442.41796875 -466.484375 442.41796875 C-465.23210016 443.89501087 -463.98270978 445.37624274 -462.80078125 446.91015625 C-461.36673409 448.68559819 -461.36673409 448.68559819 -458.484375 450.41796875 C-458.484375 451.07796875 -458.484375 451.73796875 -458.484375 452.41796875 C-457.824375 452.41796875 -457.164375 452.41796875 -456.484375 452.41796875 C-455.31099525 453.55683733 -454.1441915 454.70311526 -453.0078125 455.87890625 C-441.12188858 467.88673708 -426.99534996 476.97133094 -412.484375 485.41796875 C-411.56930176 485.96300049 -411.56930176 485.96300049 -410.63574219 486.51904297 C-357.41366258 518.05078554 -288.29641943 523.78839965 -229.1015625 508.69140625 C-191.330097 498.52280355 -156.04299353 480.5795431 -127.296875 453.88671875 C-125.484375 452.41796875 -125.484375 452.41796875 -123.484375 452.41796875 C-123.484375 451.75796875 -123.484375 451.09796875 -123.484375 450.41796875 C-122.824375 450.41796875 -122.164375 450.41796875 -121.484375 450.41796875 C-121.484375 449.75796875 -121.484375 449.09796875 -121.484375 448.41796875 C-120.824375 448.41796875 -120.164375 448.41796875 -119.484375 448.41796875 C-119.484375 447.75796875 -119.484375 447.09796875 -119.484375 446.41796875 C-118.824375 446.41796875 -118.164375 446.41796875 -117.484375 446.41796875 C-117.484375 445.75796875 -117.484375 445.09796875 -117.484375 444.41796875 C-116.824375 444.41796875 -116.164375 444.41796875 -115.484375 444.41796875 C-115.484375 443.75796875 -115.484375 443.09796875 -115.484375 442.41796875 C-114.824375 442.41796875 -114.164375 442.41796875 -113.484375 442.41796875 C-113.2265625 441.83789062 -112.96875 441.2578125 -112.703125 440.66015625 C-111.38058894 438.22702901 -109.88937447 436.54946409 -107.984375 434.54296875 C-62.1561164 383.75136084 -52.26543622 311.52839574 -52.37426758 245.9128418 C-52.37451022 243.4864858 -52.37423096 241.0601297 -52.37347412 238.6337738 C-52.37237497 233.44209664 -52.37378263 228.25042838 -52.37684059 223.05875206 C-52.38103725 214.8418702 -52.37137471 206.62502885 -52.35905457 198.40815735 C-52.35700826 197.00284583 -52.35496593 195.5975343 -52.35292751 194.19222277 C-52.34877304 191.34944845 -52.34455827 188.50667422 -52.34031999 185.66390002 C-52.32955481 178.38848346 -52.31972637 171.11306611 -52.3112793 163.83764648 C-52.31042805 163.10873527 -52.3095768 162.37982406 -52.30869975 161.62882463 C-52.2954582 149.79777958 -52.30051519 137.96680181 -52.31135086 126.13575747 C-52.32199736 113.94903911 -52.3097599 101.76248787 -52.27726859 89.57580787 C-52.25805955 82.07914932 -52.25689536 74.58293897 -52.27942487 67.08628765 C-52.2948525 61.34130957 -52.27873755 55.59674799 -52.25112915 49.85183144 C-52.24477748 47.50414136 -52.24858216 45.15639745 -52.26352501 42.80874634 C-52.35859874 26.66976694 -51.24956428 15.5629097 -39.703125 3.328125 C-28.75342906 -6.09863788 -12.33248859 -7.85323566 0 0 Z " transform="translate(614.484375,197.58203125)" style="fill: #E00D1B;"/><path d="M0 0 C1.28216904 0.00081573 1.28216904 0.00081573 2.59024048 0.00164795 C29.87052126 0.08114799 55.82293623 4.77780301 80.1875 17.375 C80.88504395 17.72997559 81.58258789 18.08495117 82.30126953 18.45068359 C90.50426018 22.63491801 98.49177373 26.98942176 106.18359375 32.0625 C108.14216327 33.40064524 108.14216327 33.40064524 110.1875 34.375 C110.1875 35.035 110.1875 35.695 110.1875 36.375 C110.91066406 36.61605469 111.63382813 36.85710937 112.37890625 37.10546875 C115.57231058 38.54894081 117.57622211 40.29172931 120.125 42.6875 C122.96065567 45.32393921 125.77913324 47.905981 128.8125 50.3125 C129.988125 51.3334375 129.988125 51.3334375 131.1875 52.375 C131.1875 53.035 131.1875 53.695 131.1875 54.375 C131.8475 54.375 132.5075 54.375 133.1875 54.375 C133.1875 55.035 133.1875 55.695 133.1875 56.375 C134.5075 57.035 135.8275 57.695 137.1875 58.375 C137.1875 59.035 137.1875 59.695 137.1875 60.375 C137.8475 60.375 138.5075 60.375 139.1875 60.375 C140.58349396 61.90337269 141.90337649 63.50150099 143.1875 65.125 C145.61616252 68.18216623 148.02363321 71.190584 150.6171875 74.109375 C158.2511971 82.74336669 163.70831228 92.28210719 169.1875 102.375 C169.69990234 103.29901611 169.69990234 103.29901611 170.22265625 104.24169922 C178.33306242 118.93968948 183.60012931 134.99224291 187.5625 151.25 C187.80105713 152.22235596 188.03961426 153.19471191 188.28540039 154.1965332 C191.59985565 168.52643137 192.60354195 182.72340242 192.5625 197.375 C192.5612915 198.18136902 192.56008301 198.98773804 192.55883789 199.81854248 C192.34830975 251.89216352 171.12518109 299.07477142 136.50390625 337.23046875 C135.1875 338.375 135.1875 338.375 133.1875 338.375 C132.83365234 339.22578125 132.83365234 339.22578125 132.47265625 340.09375 C126.6282746 350.46797154 112.86081623 357.88574909 103.1875 364.375 C102.61241699 364.76461914 102.03733398 365.15423828 101.44482422 365.55566406 C63.41260093 391.08018021 12.77829336 399.71493184 -31.95556641 391.8203125 C-61.00657728 385.99843062 -86.4629449 374.01811214 -110.8125 357.375 C-111.48474609 356.92463379 -112.15699219 356.47426758 -112.84960938 356.01025391 C-114.54113636 354.85104045 -116.18219686 353.61884527 -117.8125 352.375 C-117.8125 351.715 -117.8125 351.055 -117.8125 350.375 C-118.7096875 349.941875 -118.7096875 349.941875 -119.625 349.5 C-121.8125 348.375 -121.8125 348.375 -124.8125 346.375 C-124.8125 345.715 -124.8125 345.055 -124.8125 344.375 C-125.34875 344.16875 -125.885 343.9625 -126.4375 343.75 C-129.73228009 341.84249574 -132.40613628 339.32680616 -134.8125 336.375 C-134.8125 335.715 -134.8125 335.055 -134.8125 334.375 C-135.38613281 334.14554687 -135.95976563 333.91609375 -136.55078125 333.6796875 C-141.36151728 330.90458243 -144.44879713 325.69743944 -147.8125 321.375 C-148.93591797 319.95574219 -148.93591797 319.95574219 -150.08203125 318.5078125 C-171.62291313 290.66688285 -184.44622127 257.177163 -188.8125 222.375 C-188.90748779 221.72080078 -189.00247559 221.06660156 -189.1003418 220.39257812 C-190.11634889 212.75581723 -190.01157781 205.06448705 -190 197.375 C-189.99939575 196.63756561 -189.9987915 195.90013123 -189.99816895 195.14035034 C-189.97428848 184.42340889 -189.74551641 173.9458383 -187.8125 163.375 C-187.68891113 162.68583496 -187.56532227 161.99666992 -187.43798828 161.28662109 C-181.50276765 129.15009918 -167.52926596 99.32348991 -147.8125 73.375 C-147.11769531 72.43398437 -146.42289063 71.49296875 -145.70703125 70.5234375 C-142.24947517 65.91811538 -142.24947517 65.91811538 -140.8125 64.375 C-140.1525 64.375 -139.4925 64.375 -138.8125 64.375 C-138.8125 63.715 -138.8125 63.055 -138.8125 62.375 C-138.1525 62.375 -137.4925 62.375 -136.8125 62.375 C-136.8125 61.715 -136.8125 61.055 -136.8125 60.375 C-136.1525 60.375 -135.4925 60.375 -134.8125 60.375 C-134.8125 59.715 -134.8125 59.055 -134.8125 58.375 C-134.1525 58.375 -133.4925 58.375 -132.8125 58.375 C-132.8125 57.715 -132.8125 57.055 -132.8125 56.375 C-132.1525 56.375 -131.4925 56.375 -130.8125 56.375 C-130.8125 55.715 -130.8125 55.055 -130.8125 54.375 C-130.1525 54.375 -129.4925 54.375 -128.8125 54.375 C-128.8125 53.715 -128.8125 53.055 -128.8125 52.375 C-127.09917246 50.78966298 -125.31560953 49.27958785 -123.5 47.8125 C-122.02080078 46.60400391 -122.02080078 46.60400391 -120.51171875 45.37109375 C-117.8125 43.375 -117.8125 43.375 -114.8125 42.375 C-114.8125 41.715 -114.8125 41.055 -114.8125 40.375 C-112.88455215 38.86406908 -110.96867864 37.48465645 -108.9375 36.125 C-108.34469238 35.72240967 -107.75188477 35.31981934 -107.14111328 34.9050293 C-102.1413684 31.53663128 -97.05156253 28.35917002 -91.8125 25.375 C-90.97589844 24.89546875 -90.13929688 24.4159375 -89.27734375 23.921875 C-61.42543082 8.33464832 -31.94630319 -0.07669995 0 0 Z M-34.0625 73 C-34.86751953 73.25797363 -35.67253906 73.51594727 -36.50195312 73.78173828 C-48.20084446 77.68213577 -58.73980602 83.08831232 -68.52734375 90.6171875 C-70.47076887 92.1121299 -72.42476101 93.4499663 -74.5 94.75 C-75.263125 95.28625 -76.02625 95.8225 -76.8125 96.375 C-76.8125 97.035 -76.8125 97.695 -76.8125 98.375 C-77.4725 98.375 -78.1325 98.375 -78.8125 98.375 C-78.8125 99.035 -78.8125 99.695 -78.8125 100.375 C-79.451875 100.643125 -80.09125 100.91125 -80.75 101.1875 C-83.14381686 102.26167752 -83.14381686 102.26167752 -83.8125 105.375 C-84.8025 105.705 -85.7925 106.035 -86.8125 106.375 C-88.4857376 108.40487794 -90.00301938 110.40851121 -91.5 112.5625 C-92.15983887 113.50210571 -92.15983887 113.50210571 -92.83300781 114.46069336 C-97.26418735 120.86956311 -101.1665073 127.49338608 -104.8125 134.375 C-105.34617187 135.3753125 -105.87984375 136.375625 -106.4296875 137.40625 C-109.73898306 144.05913433 -111.99970602 150.81246055 -114.0625 157.9375 C-114.43205811 159.21282593 -114.43205811 159.21282593 -114.80908203 160.51391602 C-118.07593125 172.31588856 -119.2538939 183.84432931 -119.25 196.0625 C-119.2510675 196.77888641 -119.25213501 197.49527283 -119.25323486 198.23336792 C-119.18432565 230.51912453 -108.8709683 257.72754451 -89.8125 283.375 C-89.1525 284.365 -88.4925 285.355 -87.8125 286.375 C-87.1525 286.375 -86.4925 286.375 -85.8125 286.375 C-84.8225 288.355 -84.8225 288.355 -83.8125 290.375 C-83.1525 290.375 -82.4925 290.375 -81.8125 290.375 C-81.8125 291.035 -81.8125 291.695 -81.8125 292.375 C-81.1525 292.375 -80.4925 292.375 -79.8125 292.375 C-79.8125 293.035 -79.8125 293.695 -79.8125 294.375 C-77.95339612 296.01198509 -76.09974524 297.51314614 -74.125 299 C-73.24630249 299.66660645 -73.24630249 299.66660645 -72.34985352 300.34667969 C-45.52038668 320.38719041 -15.35950577 328.7081764 17.875 324.5625 C20.31598344 324.18874858 22.75376172 323.79333988 25.1875 323.375 C26.34894531 323.18035156 27.51039063 322.98570312 28.70703125 322.78515625 C43.67551365 319.94601649 55.8967674 313.90081731 68.43408203 305.53808594 C69.60708014 304.76000699 70.79062903 303.99761402 71.98388672 303.25097656 C73.41858807 302.3432141 74.8084181 301.36521905 76.1875 300.375 C76.1875 299.715 76.1875 299.055 76.1875 298.375 C76.8475 298.375 77.5075 298.375 78.1875 298.375 C78.1875 297.715 78.1875 297.055 78.1875 296.375 C78.75984375 296.1275 79.3321875 295.88 79.921875 295.625 C82.53760611 294.18183801 84.33523456 292.49283778 86.4375 290.375 C87.14390625 289.67375 87.8503125 288.9725 88.578125 288.25 C90.40460399 286.53389232 90.40460399 286.53389232 90.1875 284.375 C90.8475 284.375 91.5075 284.375 92.1875 284.375 C105.69043659 268.53642032 114.25699007 247.38407409 119.1875 227.375 C119.35266113 226.70952148 119.51782227 226.04404297 119.68798828 225.35839844 C128.16004844 189.63031019 119.11104562 151.14222194 100.1875 120.375 C98.03373794 117.18225956 95.73448533 114.26008073 93.1875 111.375 C92.50171875 110.570625 91.8159375 109.76625 91.109375 108.9375 C72.41294637 87.49544199 46.68744919 72.05518006 18.1875 68.375 C13.71288451 68.13599797 9.2527909 68.08602688 4.7722168 68.11425781 C2.75604057 68.12496791 0.74075858 68.11430588 -1.27539062 68.1015625 C-12.66068513 68.12396347 -23.22221429 69.51898024 -34.0625 73 Z " transform="translate(878.8125,53.625)" style="fill: #ED860A;"/><path d="M0 0 C2.86218848 1.78658898 5.61131371 3.60446934 8 6 C8 6.66 8 7.32 8 8 C8.66 8 9.32 8 10 8 C10 8.66 10 9.32 10 10 C10.66 10 11.32 10 12 10 C16.3439886 18.1176691 19.77055892 26.36885222 22.75271606 35.06582642 C23.45712552 37.11972354 24.17143562 39.16994605 24.88842773 41.21948242 C25.83788833 43.93389161 26.78474436 46.6491816 27.72949219 49.36523438 C29.30145027 53.86241192 30.91259862 58.34339327 32.5625 62.8125 C32.8301416 63.53848389 33.0977832 64.26446777 33.37353516 65.01245117 C34.97600199 69.32703889 36.6255627 73.62177677 38.296875 77.91015625 C43.20222949 90.50584692 47.837824 103.15052452 52.1965332 115.94604492 C55.02664578 124.2337259 57.9652013 132.47267286 61 140.6875 C71.75319722 169.82430984 82.26684976 199.05149532 92.5 228.375 C93.06908476 230.00447837 93.63817645 231.63395432 94.20727539 233.26342773 C96.31839864 239.31033513 98.42869009 245.35752681 100.53320312 251.40673828 C101.9303094 255.42000348 103.33954087 259.42890869 104.75 263.4375 C105.15669922 264.6116748 105.56339844 265.78584961 105.98242188 266.99560547 C106.35431641 268.0476416 106.72621094 269.09967773 107.109375 270.18359375 C107.58842285 271.55342407 107.58842285 271.55342407 108.07714844 272.95092773 C108.8180324 275.17230157 108.8180324 275.17230157 111 276 C111.17015625 275.39414062 111.3403125 274.78828125 111.515625 274.1640625 C111.87914062 272.90722656 111.87914062 272.90722656 112.25 271.625 C112.48203125 270.81289063 112.7140625 270.00078125 112.953125 269.1640625 C114.43278594 264.69195295 116.21732095 260.358778 118 256 C118.55083252 254.65252686 118.55083252 254.65252686 119.11279297 253.27783203 C119.90817927 251.33553158 120.70419424 249.3934885 121.50073242 247.45166016 C131.0917516 224.04264741 140.50900947 200.5400562 149.39135742 176.85205078 C152.14530202 169.52220496 155.07966527 162.26465631 158 155 C160.28468247 149.31136795 162.56770883 143.62207325 164.84912109 137.93212891 C165.52883186 136.2378665 166.20916268 134.54385271 166.89013672 132.85009766 C170.67367542 123.43779225 174.39703212 114.00851992 177.984375 104.51953125 C181.9463387 94.04733644 186.14116788 83.67714954 190.375 73.3125 C196.37560164 58.63593815 196.37560164 58.63593815 202.11328125 43.85546875 C202.55816895 42.67621826 203.00305664 41.49696777 203.46142578 40.28198242 C204.2437278 38.18789918 205.0177195 36.09067963 205.78076172 33.98950195 C208.14858601 27.63116798 210.89440957 21.45145545 215 16 C215.66 16 216.32 16 217 16 C217.66 14.68 218.32 13.36 219 12 C219.66 12 220.32 12 221 12 C221 11.34 221 10.68 221 10 C231.11472519 2.96366944 242.01963974 2.1832959 254 4 C263.05541603 6.9598609 269.13169515 12.94211611 274 21 C279.2045899 32.58069266 276.39579373 44.43183578 272.31433105 55.93197632 C270.850084 59.73688334 269.22778507 63.47094095 267.57235718 67.19540405 C266.00087902 70.733303 264.47263357 74.28996875 262.9375 77.84375 C262.45533272 78.95558907 262.45533272 78.95558907 261.96342468 80.08988953 C258.22746 88.73047138 254.70552006 97.45646251 251.1875 106.1875 C250.54615264 107.77632272 249.90471462 109.36510885 249.26318359 110.95385742 C248.0480069 113.96418776 246.83379827 116.97490625 245.62011719 119.98583984 C240.21956269 133.3762396 234.70794926 146.72119385 229.1875 160.0625 C228.68500732 161.27703857 228.18251465 162.49157715 227.66479492 163.74291992 C225.31004974 169.43208824 222.9515245 175.11963222 220.58242798 180.80284119 C215.74603681 192.4061651 210.9219982 203.99332374 206.58984375 215.796875 C201.14410309 230.4008679 194.93400949 244.73870587 188.99291992 259.14794922 C188.70645599 259.84273376 188.41999207 260.53751831 188.12484741 261.25335693 C187.54032491 262.67091627 186.95570943 264.08843726 186.3710022 265.50592041 C180.94973045 278.65128515 175.59623726 291.82356007 170.26367188 305.00512695 C166.94806957 313.20024717 163.61522911 321.3875985 160.25 329.5625 C156.93105481 337.63212271 153.73672327 345.74747244 150.5625 353.875 C145.9567073 365.65958687 141.16460857 377.35490743 136.25585938 389.01611328 C134.05863235 394.23666318 131.87204923 399.46163518 129.6875 404.6875 C129.29103271 405.63077148 128.89456543 406.57404297 128.48608398 407.54589844 C126.00254437 413.48468407 123.64695156 419.46291491 121.3503418 425.47631836 C119.06705834 431.43448689 116.73334511 437.37279466 114.39819336 443.31079102 C113.84191323 444.726437 113.28657156 446.14245213 112.73217773 447.55883789 C109.41995739 456.02057921 105.99889363 464.41253861 102.38647461 472.7512207 C101.09260127 475.78301724 99.85967477 478.82979556 98.65625 481.8984375 C98.11677734 483.26548828 98.11677734 483.26548828 97.56640625 484.66015625 C96.84748617 486.49037404 96.13671108 488.32380953 95.43359375 490.16015625 C90.99597086 501.30988257 83.51047495 511.21474809 72.4375 516.5 C63.32627972 519.64570902 53.19276447 519.52061079 44.4375 515.5 C36.84948819 511.09339342 31.58414348 505.28243004 28.66796875 496.94140625 C25.68898993 483.82344691 29.01947907 473.03264654 34 461 C34.83301222 458.94571001 35.66497269 456.89099334 36.49609375 454.8359375 C37.88257356 451.41875494 39.27410779 448.00392895 40.67773438 444.59375 C44.00749834 436.50138724 47.19935325 428.36545133 50.3125 420.1875 C53.25874007 412.45133591 56.30382067 404.80613146 59.6328125 397.2265625 C61.52184092 392.76845543 63.20898145 388.24337519 64.87841797 383.69921875 C66.55592415 379.13622265 68.36308928 374.65385586 70.3359375 370.2109375 C72.2880869 363.71142831 69.98206829 358.61636544 67.5625 352.625 C66.81691104 350.72427089 66.07214927 348.82321714 65.328125 346.921875 C64.94076172 345.94025391 64.55339844 344.95863281 64.15429688 343.94726562 C62.32437019 339.27491476 60.56806763 334.57568923 58.8125 329.875 C58.26964355 328.42710083 58.26964355 328.42710083 57.71582031 326.94995117 C55.37943769 320.71283829 53.0611302 314.46915608 50.75 308.22265625 C50.17604187 306.6726827 49.60206717 305.12271528 49.02807617 303.57275391 C47.91398336 300.56414857 46.80253143 297.55458616 45.69262695 294.54443359 C42.72545215 286.5169744 39.64583942 278.54800842 36.44458008 270.61108398 C34.11605936 264.7903725 31.90113669 258.92766349 29.6875 253.0625 C29.20841857 251.79619171 28.7292501 250.52991634 28.25 249.26367188 C24.94708384 240.53154319 21.6669758 231.79089092 18.39501953 223.04711914 C15.63976807 215.68955054 12.85488122 208.34354585 10.0625 201 C5.00025165 187.68216641 -0.00210946 174.34210087 -5 161 C-9.87303193 147.99126674 -14.74856769 134.98387901 -19.6875 122 C-24.69110697 108.84585732 -29.64205182 95.67213954 -34.56811523 82.48876953 C-37.29918103 75.18238286 -40.03465497 67.87926423 -42.8515625 60.60546875 C-55.03837741 29.07181702 -55.03837741 29.07181702 -48.8359375 14.2109375 C-45.43675975 7.92530713 -41.00298565 3.79083013 -35 0 C-34.32324219 -0.43441406 -33.64648438 -0.86882813 -32.94921875 -1.31640625 C-22.86212157 -6.76837779 -9.87309562 -5.15664867 0 0 Z " transform="translate(1151,60)" style="fill: #ED860A;"/><path d="M0 0 C0.71542969 0.55429688 1.43085938 1.10859375 2.16796875 1.6796875 C32.32107415 26.30805173 43.89461357 66.87770399 48 104 C48.76643406 111.74928842 49.15207086 119.42415667 49.16113281 127.20947266 C49.16609772 128.25830124 49.17106262 129.30712982 49.17617798 130.38774109 C49.19063207 133.81318851 49.19757037 137.23858977 49.203125 140.6640625 C49.20595238 141.84312542 49.20877975 143.02218834 49.21169281 144.23698044 C49.22661079 150.46658294 49.23588912 156.69616268 49.24023438 162.92578125 C49.24573371 169.338922 49.26981385 175.75185203 49.29820633 182.16492653 C49.31686504 187.12017423 49.32203986 192.07537123 49.32357025 197.03065109 C49.32658578 199.39482154 49.33457691 201.75899134 49.34775543 204.12312698 C49.36489696 207.43201948 49.36291667 210.74039697 49.35644531 214.04931641 C49.3656601 215.01374161 49.37487488 215.97816681 49.3843689 216.97181702 C49.32205739 227.19321319 46.7183165 236.15696534 40 244 C37.47032127 246.23742418 34.82853322 248.16054876 32 250 C31.01 250.66 30.02 251.32 29 252 C19.24078225 255.23311508 9.48096754 254.89480009 0 251 C-9.8839673 245.96281176 -14.62715258 239.06031669 -19 229 C-20.24173841 224.77534159 -20.15987613 220.60456564 -20.17358398 216.234375 C-20.180271 215.34908112 -20.18695801 214.46378723 -20.19384766 213.55166626 C-20.20789342 211.62778088 -20.21978899 209.70387889 -20.22979546 207.77996826 C-20.24627639 204.7160455 -20.26952646 201.65224192 -20.29469299 198.58837891 C-20.36520583 189.87571241 -20.42500874 181.16299259 -20.47680664 172.45019531 C-20.50899747 167.11568404 -20.55038427 161.78130312 -20.59700203 156.44689941 C-20.61280769 154.43154298 -20.62522523 152.41615653 -20.63390923 150.40075684 C-20.77376813 118.35684945 -23.00224934 83.14028647 -45 58 C-45 57.34 -45 56.68 -45 56 C-45.66 56 -46.32 56 -47 56 C-47 55.34 -47 54.68 -47 54 C-47.52980469 53.75765625 -48.05960938 53.5153125 -48.60546875 53.265625 C-51.04760748 51.97483716 -53.28698951 50.48220326 -55.56762695 48.92797852 C-77.05881536 34.4190959 -102.51291102 31.13831985 -128 35 C-148.61857813 39.40567909 -168.3752598 48.6861288 -180.28125 66.91015625 C-185.99122532 77.17513461 -190.07067167 88.04290155 -192.875 99.4375 C-193.06594238 100.19716064 -193.25688477 100.95682129 -193.45361328 101.73950195 C-196.87866536 116.88518782 -197.29487405 132.58542881 -197.15032959 148.0450592 C-197.12415248 150.8728025 -197.11161349 153.70035242 -197.10205078 156.52819824 C-197.07953167 162.5188878 -197.04099179 168.50941214 -197 174.5 C-196.95246419 181.48273109 -196.91185985 188.46537107 -196.88812256 195.44822693 C-196.87532495 198.2110972 -196.85033485 200.97367383 -196.82470703 203.7364502 C-196.73877974 218.37201429 -197.03385993 232.67824527 -207.04296875 244.390625 C-215.0626077 252.05541267 -223.12202885 254.61364795 -234.09790039 254.47314453 C-244.23981197 254.02806005 -252.46424945 249.74241857 -259.46484375 242.48046875 C-269.21094358 230.30524981 -267.57159748 214.54862703 -267.49609375 199.91796875 C-267.49624906 197.45673073 -267.49774325 194.99549246 -267.50050354 192.53425598 C-267.50188428 187.3825088 -267.48939348 182.23104106 -267.46655273 177.0793457 C-267.43833477 170.54188097 -267.44086514 164.00488575 -267.45364285 157.4673872 C-267.46067297 152.38204592 -267.45272539 147.29680902 -267.44038582 142.21148109 C-267.43593041 139.80504065 -267.43548153 137.39858874 -267.43945122 134.99214745 C-267.45645609 115.59703663 -266.22400309 96.41168129 -261.625 77.5 C-261.41294922 76.60039551 -261.20089844 75.70079102 -260.98242188 74.77392578 C-259.10198319 67.00671556 -256.79668118 59.48731733 -254 52 C-253.63390625 50.99195313 -253.2678125 49.98390625 -252.890625 48.9453125 C-248.35668655 37.2378139 -241.70082141 26.54158179 -233.62890625 16.953125 C-231.85023746 14.89119074 -231.85023746 14.89119074 -230 12 C-229.34 12 -228.68 12 -228 12 C-227.7834375 11.44828125 -227.566875 10.8965625 -227.34375 10.328125 C-225.53504366 7.19443611 -223.18448326 5.16603494 -220.5 2.75 C-220.00113281 2.29109375 -219.50226563 1.8321875 -218.98828125 1.359375 C-215.25897507 -2 -215.25897507 -2 -213 -2 C-213 -2.66 -213 -3.32 -213 -4 C-205.12576002 -10.27343295 -196.08417898 -14.77455903 -187 -19 C-186.04738281 -19.45246094 -185.09476562 -19.90492188 -184.11328125 -20.37109375 C-175.08240483 -24.41420579 -165.59297228 -26.71419864 -156 -29 C-154.76378906 -29.30035156 -153.52757812 -29.60070312 -152.25390625 -29.91015625 C-100.67500811 -41.35296643 -42.17985277 -32.76215898 0 0 Z " transform="translate(431,188)" style="fill: #ED8609;"/><path d="M0 0 C8.23654119 5.79389932 13.78914639 12.38067548 15.62371445 22.40963459 C16.90829421 32.53972974 17.28656984 42.47075874 17.25878906 52.67456055 C17.26150745 54.37994536 17.26507309 56.08532899 17.26940918 57.79071045 C17.27843269 62.37109823 17.27503148 66.95139469 17.26865101 71.53178382 C17.26354093 76.35296333 17.26829601 81.1741357 17.27142334 85.99531555 C17.27504748 94.08388657 17.27030376 102.1724209 17.26074219 110.26098633 C17.24984958 119.58258234 17.25339536 128.9040909 17.264395 138.22568482 C17.27349909 146.2660667 17.27473826 154.30642241 17.26951766 162.34680778 C17.2664165 167.1329754 17.26593742 171.91910204 17.27259064 176.70526695 C17.27840953 181.2042331 17.27428493 185.70308743 17.26280212 190.20204163 C17.26018014 191.84301379 17.26087794 193.48399553 17.26532745 195.12496376 C17.30237771 210.18891667 16.32412612 222.69401669 8.3125 235.75 C1.25699009 242.61482045 -7.12012857 246.00458108 -16.875 246.3125 C-26.32871366 246.13546416 -34.43480926 242.91302063 -41.625 236.75 C-51.83859048 224.92373734 -52.44618216 212.74394228 -52.40405273 197.72143555 C-52.40976269 195.87900378 -52.41672936 194.03657555 -52.42485046 192.19415283 C-52.44272981 187.21257464 -52.44162309 182.2311731 -52.43590808 177.24957252 C-52.43280803 173.07990253 -52.43891788 168.91026608 -52.44494683 164.74060088 C-52.4589739 154.897107 -52.45744647 145.05369994 -52.44604492 135.21020508 C-52.43457104 125.0809152 -52.44863133 114.95189032 -52.4754414 104.82263535 C-52.49765002 96.10296323 -52.504224 87.38337398 -52.49836498 78.66367561 C-52.49500588 73.46600834 -52.49734038 68.26851082 -52.51461601 63.07086754 C-52.53016507 58.17955627 -52.52604185 53.28863516 -52.50731087 48.39733887 C-52.50364664 46.61124047 -52.50666957 44.82511265 -52.51719666 43.03904152 C-52.58878193 29.87987762 -51.92538182 17.40063026 -42.91796875 6.93359375 C-31.24934578 -4.83008929 -15.06027086 -8.38943016 0 0 Z " transform="translate(69,196)" style="fill: #EE870B;"/><path d="M0 0 C1.12728516 0.98613281 1.12728516 0.98613281 2.27734375 1.9921875 C2.91542969 2.54648437 3.55351563 3.10078125 4.2109375 3.671875 C16.75997238 15.35449545 23.19671994 32.69903435 24.5625 49.5 C25.07156021 69.28694896 18.08060704 87.22345538 4.7421875 101.75390625 C-9.75573444 115.69667948 -28.04897527 122.86230322 -48.14990234 122.51611328 C-65.09455908 121.70638183 -80.91801428 115.18364623 -93.72265625 103.9921875 C-93.72265625 103.3321875 -93.72265625 102.6721875 -93.72265625 101.9921875 C-94.38265625 101.9921875 -95.04265625 101.9921875 -95.72265625 101.9921875 C-95.72265625 101.3321875 -95.72265625 100.6721875 -95.72265625 99.9921875 C-96.38265625 99.9921875 -97.04265625 99.9921875 -97.72265625 99.9921875 C-99.27769902 98.02286693 -100.6996528 96.06917251 -102.09765625 93.9921875 C-102.70710083 93.09089111 -102.70710083 93.09089111 -103.32885742 92.17138672 C-114.50163533 75.44264803 -117.78981819 56.05469788 -113.91015625 36.23046875 C-109.72550208 18.77886781 -97.55116617 2.69293542 -82.26171875 -6.703125 C-54.94582333 -20.7392928 -24.07814073 -20.16021262 0 0 Z " transform="translate(638.72265625,16.0078125)" style="fill: #E10C1B;"/><path d="M0 0 C4.51922968 3.08975341 8.92326504 6.34408929 13 10 C13 10.66 13 11.32 13 12 C13.66 12 14.32 12 15 12 C29.30865584 29.22762164 33.47654467 48.04896025 32 70 C29.91165554 87.5114045 19.82394585 103.08133142 6.42578125 114.12109375 C-10.09680136 126.18231967 -30.0275315 130.60641294 -50.23046875 127.50390625 C-52.89282059 126.80784085 -55.42085262 125.95796903 -58 125 C-59.54880859 124.50693359 -59.54880859 124.50693359 -61.12890625 124.00390625 C-77.53210147 118.40706632 -89.4630015 106.75961889 -98 92 C-98.39058594 91.35546875 -98.78117187 90.7109375 -99.18359375 90.046875 C-107.50334778 75.15548647 -108.33216809 56.32051391 -104.4375 40 C-100.73104897 28.14194862 -94.82201928 18.68767381 -86 10 C-85.28972656 9.29101562 -84.57945313 8.58203125 -83.84765625 7.8515625 C-74.22607166 -1.23065659 -63.77213388 -5.93863801 -51 -9 C-50.36489502 -9.1750708 -49.72979004 -9.3501416 -49.07543945 -9.53051758 C-32.5922988 -13.25914709 -14.08021931 -8.66756358 0 0 Z " transform="translate(106,10)" style="fill: #E00C1B;"/><path d="M0 0 C2.26551497 1.79820578 4.40074218 3.65985529 6.50390625 5.64453125 C7.78704461 7.1119033 7.78704461 7.1119033 9 7 C9.33 3.37 9.66 -0.26 10 -4 C17.26 -4 24.52 -4 32 -4 C33.00569828 6.81849719 33.14690612 17.51458174 33.1328125 28.37109375 C33.13348809 30.22469597 33.13446023 32.0782981 33.13571167 33.93190002 C33.13717702 37.79713798 33.13507202 41.66235266 33.13037109 45.52758789 C33.12467857 50.4436933 33.12795727 55.35974403 33.13394356 60.27584743 C33.13758419 64.09805196 33.13639455 67.92024387 33.13381577 71.74244881 C33.13315594 73.55345733 33.13394126 75.36446705 33.13629532 77.17547417 C33.16027357 100.801143 32.82310316 123.50199835 15.5390625 141.7109375 C1.97135292 153.94274953 -15.97418462 156.88989912 -33.625 156.17919922 C-49.15269279 155.00759904 -63.39410348 148.39355378 -74 137 C-78.49832893 131.54191629 -81.24465819 126.90321924 -83 120 C-78.98015717 119.76631434 -74.96206913 119.6251393 -70.9375 119.5 C-69.80376953 119.43296875 -68.67003906 119.3659375 -67.50195312 119.296875 C-59.15118683 119.10210494 -59.15118683 119.10210494 -55.80078125 121.71533203 C-53.99609375 123.8515625 -53.99609375 123.8515625 -52.4074707 126.05371094 C-48.48990892 131.47102273 -40.46594243 133.57128395 -34.1328125 134.71875 C-23.29891922 136.14739527 -12.30522679 133.75656993 -3.15625 127.7265625 C6.33254548 120.12865018 8.18421618 109.42875699 10 98 C9.33355469 98.59167969 8.66710938 99.18335938 7.98046875 99.79296875 C-6.42305854 112.14172711 -20.50740798 115.20925757 -39 114 C-42.93849823 113.46907499 -46.32589165 112.49985627 -50 111 C-51.64162109 110.33871094 -51.64162109 110.33871094 -53.31640625 109.6640625 C-69.43624732 102.40924929 -80.55132581 90.32264736 -86.96484375 73.88671875 C-92.15103347 59.42409912 -91.73667183 42.24613234 -85.3359375 28.21484375 C-77.52395101 12.18974181 -65.19586999 0.17536109 -48.33203125 -5.97265625 C-32.14043522 -10.77430197 -14.38094648 -8.94656241 0 0 Z M-57.25 26.125 C-64.63685897 34.83883962 -67.7240556 45.68907736 -67 57 C-66.12061523 66.48582265 -62.90510949 75.17692472 -56.25 82.1875 C-54.22195388 84.20910985 -54.22195388 84.20910985 -52 84 C-52 84.66 -52 85.32 -52 86 C-40.19361911 92.35267195 -30.74097939 95.9630288 -17.39453125 92.28125 C-7.33849466 88.66419498 -0.02166553 82.41562287 5 73 C10.77202643 60.58644316 11.7288232 49.0769365 7.2578125 35.9765625 C3.07221798 26.07152205 -5.08333021 18.79646412 -14.921875 14.7265625 C-30.65192026 9.22696021 -46.03733236 14.53437727 -57.25 26.125 Z " transform="translate(1388,634)" style="fill: #D61220;"/><path d="M0 0 C1.61154041 1.37159274 3.16063669 2.81615462 4.69140625 4.27734375 C4.75199219 3.65085937 4.81257812 3.024375 4.875 2.37890625 C5.00068359 1.15300781 5.00068359 1.15300781 5.12890625 -0.09765625 C5.25072266 -1.31582031 5.25072266 -1.31582031 5.375 -2.55859375 C5.69140625 -4.72265625 5.69140625 -4.72265625 6.69140625 -6.72265625 C13.95140625 -6.72265625 21.21140625 -6.72265625 28.69140625 -6.72265625 C28.69140625 31.22734375 28.69140625 69.17734375 28.69140625 108.27734375 C21.94140625 109.40234375 21.94140625 109.40234375 18.60546875 109.15625 C17.90292969 109.10791016 17.20039062 109.05957031 16.4765625 109.00976562 C15.76371094 108.95369141 15.05085937 108.89761719 14.31640625 108.83984375 C13.58035156 108.78763672 12.84429688 108.73542969 12.0859375 108.68164062 C10.28729996 108.55316652 8.48927716 108.41613426 6.69140625 108.27734375 C6.69140625 103.98734375 6.69140625 99.69734375 6.69140625 95.27734375 C5.90378906 95.94121094 5.11617187 96.60507812 4.3046875 97.2890625 C-10.9807701 109.80954961 -25.84511056 112.53305234 -45.30859375 111.27734375 C-59.17763385 109.50293589 -70.9337058 101.3081539 -80.30859375 91.27734375 C-92.18971969 75.73173261 -95.38228183 58.0668488 -93.02001953 38.94091797 C-90.32242324 22.86758919 -81.56818263 9.18511497 -68.49609375 -0.53515625 C-47.83263701 -14.09754891 -20.23253618 -15.09737471 0 0 Z M-61.2265625 23.66796875 C-69.37728043 33.88312743 -71.42949701 44.55603102 -70.30859375 57.27734375 C-68.13530478 69.20424889 -62.17662916 78.27767438 -52.30859375 85.27734375 C-44.37922508 90.40015549 -35.09184511 92.10554964 -25.77734375 90.80859375 C-15.05773662 88.50184285 -5.87083887 82.6176013 0.41015625 73.5625 C6.05953344 63.4866291 8.28017742 51.13887136 5.5390625 39.84765625 C2.13847632 29.53620139 -2.86247585 20.88306698 -12.5 15.4921875 C-30.41167361 6.87257665 -47.35702152 9.19117992 -61.2265625 23.66796875 Z " transform="translate(900.30859375,636.72265625)" style="fill: #D71220;"/><path d="M0 0 C11.44406399 9.56426287 18.00996766 23.32801504 20 38 C20.11350213 40.95996682 20.09512733 43.91344217 20.0625 46.875 C20.05798828 47.65875 20.05347656 48.4425 20.04882812 49.25 C20.03714093 51.16670014 20.01920908 53.08336048 20 55 C11.93010716 55.13337514 3.86017424 55.26387966 -4.20981693 55.39115143 C-7.96094531 55.45039146 -11.71205574 55.51046101 -15.46313477 55.57275391 C-35.97744752 55.91264558 -56.4827821 56.07105009 -77 56 C-68.09318266 74.70116534 -68.09318266 74.70116534 -50.96484375 85.81640625 C-41.08508261 88.71744494 -31.2302466 87.26883165 -22 83 C-18.06403512 80.64794837 -14.06934856 78.25485287 -12.05151367 74 C-10.8928985 71.60802029 -9.89987923 69.87033338 -8 68 C-4.03038896 66.99630376 -0.24966182 67.24192741 3.8125 67.5 C4.88693359 67.53609375 5.96136719 67.5721875 7.06835938 67.609375 C9.71588793 67.70350935 12.35611006 67.83481644 15 68 C16.30310976 71.90932927 15.41923843 72.92180986 13.625 76.5625 C10.2785332 82.97656137 6.12948923 87.94089827 1 93 C0.36191406 93.64839844 -0.27617188 94.29679688 -0.93359375 94.96484375 C-13.67232091 107.06795874 -28.41918249 108.59018442 -45.1171875 108.3125 C-51.99323786 108.05163182 -57.6948086 106.87826141 -64 104 C-64.93457031 103.5875 -65.86914062 103.175 -66.83203125 102.75 C-82.75324043 94.91186625 -92.31605852 81.45575568 -98 65 C-103.22528054 47.29616489 -99.82538699 29.75963503 -91.234375 13.77734375 C-83.33393448 -0.08993561 -70.53346234 -8.06149792 -55.61328125 -12.75 C-35.72650745 -17.61196168 -15.85304829 -12.49261249 0 0 Z M-64 14 C-64 14.66 -64 15.32 -64 16 C-64.59683594 16.24621094 -65.19367187 16.49242187 -65.80859375 16.74609375 C-68.37608191 18.21519126 -69.43708809 19.6048772 -71.0625 22.0625 C-71.79146484 23.13177734 -71.79146484 23.13177734 -72.53515625 24.22265625 C-73.84963269 26.71490358 -74.72291999 29.00535017 -75.59155273 31.67358398 C-75.9893821 32.88896095 -75.9893821 32.88896095 -76.39524841 34.12889099 C-76.59481644 34.74635696 -76.79438446 35.36382294 -77 36 C-67.79474862 36.17693824 -58.58938428 36.3428955 -49.38368511 36.49477577 C-45.10926719 36.56564369 -40.83498582 36.64031498 -36.56079102 36.72363281 C-32.43716288 36.80387643 -28.31347476 36.87418878 -24.18955421 36.93757248 C-22.61500608 36.96352722 -21.04051307 36.99308054 -19.46610069 37.02626419 C-17.26348879 37.07207788 -15.06102936 37.10517555 -12.8581543 37.13525391 C-11.60350876 37.15746002 -10.34886322 37.17966614 -9.05619812 37.20254517 C-5.82513829 37.24342715 -5.82513829 37.24342715 -3 35 C-6.68289859 24.04280482 -12.45783744 15.41494592 -22.8125 9.875 C-37.0887406 3.08442863 -50.8651775 5.79478989 -64 14 Z " transform="translate(776,640)" style="fill: #D61321;"/><path d="M0 0 C9.84214689 8.68171909 13.13474185 22.94192088 14.0390625 35.515625 C14.1833751 40.97408681 14.18012443 46.43078423 14.171875 51.890625 C14.17254955 53.46720393 14.17352083 55.04378275 14.17477417 56.62036133 C14.17624059 59.90495811 14.17412841 63.18952751 14.16943359 66.47412109 C14.16369914 70.69211977 14.16704525 74.91005532 14.17300606 79.12805176 C14.17660822 82.37413007 14.17547534 85.62019322 14.17287827 88.86627197 C14.17220998 90.42287198 14.173034 91.97947336 14.17535782 93.53607178 C14.17788273 95.69986669 14.17404784 97.86355671 14.16845703 100.02734375 C14.16766144 101.25928467 14.16686584 102.49122559 14.16604614 103.76049805 C14.0390625 106.515625 14.0390625 106.515625 13.0390625 107.515625 C11.40433368 107.60262842 9.76592195 107.62263563 8.12890625 107.61328125 C7.13955078 107.61005859 6.15019531 107.60683594 5.13085938 107.60351562 C4.08994141 107.59513672 3.04902344 107.58675781 1.9765625 107.578125 C0.93177734 107.57361328 -0.11300781 107.56910156 -1.18945312 107.56445312 C-3.7800041 107.55262413 -6.37044309 107.53614189 -8.9609375 107.515625 C-8.96902435 106.63358902 -8.97711121 105.75155304 -8.98544312 104.8427887 C-9.06361465 96.50141669 -9.15097226 88.16020115 -9.24846458 79.81903172 C-9.29825871 75.53148654 -9.34458925 71.24396401 -9.3828125 66.95629883 C-9.41987984 62.81295143 -9.46629583 58.66980162 -9.51900101 54.52662468 C-9.53743166 52.95155262 -9.55258071 51.37643839 -9.56428146 49.80130196 C-9.6446003 32.00122095 -9.6446003 32.00122095 -18.41015625 16.9765625 C-24.84757031 11.19809634 -31.91367949 11.01065088 -40.19140625 11.140625 C-47.24882456 11.84271014 -52.51977698 14.66088021 -57.3984375 19.765625 C-68.31639051 34.23037066 -64.24593346 59.93972909 -64.49316406 76.9644165 C-64.54413089 80.41772708 -64.5994173 83.87096853 -64.65429688 87.32421875 C-64.76040769 94.0546318 -64.86234165 100.78509788 -64.9609375 107.515625 C-68.60675437 107.54450012 -72.25254213 107.56238085 -75.8984375 107.578125 C-77.45981445 107.59069336 -77.45981445 107.59069336 -79.05273438 107.60351562 C-80.04208984 107.60673828 -81.03144531 107.60996094 -82.05078125 107.61328125 C-83.42544556 107.62113647 -83.42544556 107.62113647 -84.82788086 107.62915039 C-86.9609375 107.515625 -86.9609375 107.515625 -87.9609375 106.515625 C-88.05874975 105.05046196 -88.08725498 103.58060678 -88.08792114 102.11218262 C-88.09074097 101.1614537 -88.09356079 100.21072479 -88.09646606 99.23118591 C-88.09444183 98.17971878 -88.0924176 97.12825165 -88.09033203 96.04492188 C-88.09208435 94.94422867 -88.09383667 93.84353546 -88.09564209 92.70948792 C-88.10006318 89.05110116 -88.09712171 85.39276229 -88.09375 81.734375 C-88.09442297 79.20471182 -88.09539293 76.6750487 -88.09664917 74.14538574 C-88.09812649 68.83568651 -88.09606508 63.52600463 -88.09130859 58.21630859 C-88.08586601 52.06956542 -88.08762868 45.92285541 -88.093135 39.77611303 C-88.0982119 33.87344936 -88.09768456 27.97079604 -88.09475327 22.06813049 C-88.09408374 19.55139664 -88.0949133 17.03466195 -88.09723282 14.51792908 C-88.09975783 11.00737225 -88.09592088 7.4968801 -88.09033203 3.98632812 C-88.09235626 2.93486099 -88.09438049 1.88339386 -88.09646606 0.80006409 C-88.09364624 -0.15066483 -88.09082642 -1.10139374 -88.08792114 -2.08093262 C-88.08754412 -2.91201286 -88.08716709 -3.74309311 -88.08677864 -4.5993576 C-87.9609375 -6.484375 -87.9609375 -6.484375 -86.9609375 -7.484375 C-85.48441086 -7.58318297 -84.00326514 -7.61516745 -82.5234375 -7.6171875 C-81.62882813 -7.61847656 -80.73421875 -7.61976563 -79.8125 -7.62109375 C-78.87148438 -7.61722656 -77.93046875 -7.61335937 -76.9609375 -7.609375 C-75.54941406 -7.61517578 -75.54941406 -7.61517578 -74.109375 -7.62109375 C-72.76746094 -7.61916016 -72.76746094 -7.61916016 -71.3984375 -7.6171875 C-70.57214844 -7.61605957 -69.74585938 -7.61493164 -68.89453125 -7.61376953 C-66.9609375 -7.484375 -66.9609375 -7.484375 -65.9609375 -6.484375 C-65.72900885 -4.96968052 -65.54878512 -3.44682938 -65.3984375 -1.921875 C-65.27275391 -0.68244141 -65.27275391 -0.68244141 -65.14453125 0.58203125 C-65.08394531 1.22011719 -65.02335937 1.85820313 -64.9609375 2.515625 C-64.3421875 1.855625 -63.7234375 1.195625 -63.0859375 0.515625 C-60.9609375 -1.484375 -60.9609375 -1.484375 -58.9609375 -1.484375 C-58.9609375 -2.144375 -58.9609375 -2.804375 -58.9609375 -3.484375 C-38.49264474 -14.33257016 -19.14353239 -14.49112014 0 0 Z " transform="translate(1099.9609375,637.484375)" style="fill: #D81422;"/><path d="M0 0 C10.60438712 8.64357592 15.06928371 19.89047733 16.67835617 33.30394173 C16.98941928 36.54997115 17.01017469 39.7713159 17.01220703 43.03100586 C17.01483551 44.09836472 17.01483551 44.09836472 17.01751709 45.18728638 C17.02187305 47.5089979 17.01902214 49.83063163 17.015625 52.15234375 C17.01629931 53.77519241 17.01727041 55.39804097 17.01852417 57.02088928 C17.01999219 60.40561901 17.01787351 63.7903222 17.01318359 67.17504883 C17.00745478 71.52199096 17.01079074 75.86887178 17.01675606 80.21581173 C17.02035869 83.55882739 17.01922502 86.90182835 17.01662827 90.24484444 C17.01595982 91.84889292 17.01678456 93.45294273 17.01910782 95.05698967 C17.02163289 97.28794819 17.01779734 99.51880497 17.01220703 101.74975586 C17.01141144 103.02024277 17.01061584 104.29072968 17.00979614 105.59971619 C16.8828125 108.4375 16.8828125 108.4375 15.8828125 109.4375 C14.24808368 109.52450342 12.60967195 109.54451063 10.97265625 109.53515625 C9.98330078 109.53193359 8.99394531 109.52871094 7.97460938 109.52539062 C6.93369141 109.51701172 5.89277344 109.50863281 4.8203125 109.5 C3.77552734 109.49548828 2.73074219 109.49097656 1.65429688 109.48632812 C-0.9362541 109.47449913 -3.52669309 109.45801689 -6.1171875 109.4375 C-6.12305374 108.53262848 -6.12891998 107.62775696 -6.13496399 106.69546509 C-6.19306517 98.13361351 -6.2652408 89.57201797 -6.35290241 81.01041603 C-6.39747365 76.60966477 -6.43675829 72.20900326 -6.46362305 67.80810547 C-6.48978906 63.55446238 -6.53028355 59.30116717 -6.58037376 55.04774094 C-6.59695313 53.43163787 -6.60852266 51.81547476 -6.61480141 50.19929886 C-6.66690373 38.01167395 -6.99291267 26.56177483 -16.1171875 17.4375 C-21.94998052 12.30115988 -29.75082687 12.75813376 -37.1015625 13.046875 C-41.96897664 13.40127658 -45.08010955 14.64259988 -49.1171875 17.4375 C-50.0246875 18.05625 -50.9321875 18.675 -51.8671875 19.3125 C-59.66096437 26.67328927 -60.8652184 35.60001669 -61.24221802 45.83035278 C-61.32820671 49.87776958 -61.38618107 53.9246485 -61.43359375 57.97265625 C-61.45420452 59.46195498 -61.47520194 60.9512484 -61.49656677 62.4405365 C-61.55136232 66.33169212 -61.60095629 70.22289673 -61.64941406 74.11413574 C-61.69994263 78.09631635 -61.75546383 82.07842713 -61.81054688 86.06054688 C-61.91760717 93.85280672 -62.01870218 101.6451262 -62.1171875 109.4375 C-69.3771875 109.4375 -76.6371875 109.4375 -84.1171875 109.4375 C-84.85190881 102.21037022 -85.26271457 95.11826443 -85.24658203 87.85717773 C-85.24833435 86.86391983 -85.25008667 85.87066193 -85.25189209 84.8473053 C-85.25624936 81.60521637 -85.25339646 78.36318311 -85.25 75.12109375 C-85.25067432 72.85474131 -85.25164541 70.58838894 -85.25289917 68.32203674 C-85.25436741 63.59416 -85.25224795 58.86630226 -85.24755859 54.13842773 C-85.24183233 48.06869484 -85.24516404 41.99900588 -85.25113106 35.92927456 C-85.25473525 31.26001145 -85.25359925 26.59075886 -85.25100327 21.92149544 C-85.25033512 19.68190569 -85.25115851 17.442315 -85.25348282 15.20272636 C-85.25601015 12.08621537 -85.25216892 8.96977704 -85.24658203 5.85327148 C-85.24860626 4.9239682 -85.25063049 3.99466492 -85.25271606 3.03720093 C-85.24989624 2.19210464 -85.24707642 1.34700836 -85.24417114 0.4763031 C-85.2436056 -0.62777563 -85.2436056 -0.62777563 -85.24302864 -1.75415897 C-85.1171875 -3.5625 -85.1171875 -3.5625 -84.1171875 -5.5625 C-77.1871875 -5.5625 -70.2571875 -5.5625 -63.1171875 -5.5625 C-62.7871875 -2.2625 -62.4571875 1.0375 -62.1171875 4.4375 C-61.0240625 3.385625 -59.9309375 2.33375 -58.8046875 1.25 C-42.0897364 -13.312938 -17.45009341 -12.87829772 0 0 Z " transform="translate(1265.1171875,635.5625)" style="fill: #D61220;"/><path d="M0 0 C0.83265381 0.00523682 1.66530762 0.01047363 2.52319336 0.01586914 C3.42231445 0.0190918 4.32143555 0.02231445 5.24780273 0.02563477 C6.66609375 0.03820312 6.66609375 0.03820312 8.11303711 0.05102539 C9.06243164 0.05553711 10.01182617 0.06004883 10.98999023 0.06469727 C13.34356776 0.07652429 15.69702188 0.09300514 18.05053711 0.11352539 C19.67304041 4.39226505 20.29185359 7.88644428 20.25308228 12.45370483 C20.24741745 13.70724762 20.24175262 14.96079041 20.23591614 16.25231934 C20.21939784 17.62842026 20.20268293 19.00451884 20.18579102 20.38061523 C20.17535698 21.83960377 20.16582323 23.29859899 20.15711975 24.75759888 C20.13101463 28.70764469 20.09234653 32.65747864 20.05139589 36.6073947 C20.01070373 40.73931593 19.98160244 44.87131853 19.95126343 49.00332642 C19.89209048 56.82305548 19.82251706 64.64265592 19.7491926 72.4622637 C19.6662037 81.36664471 19.59483108 90.27110703 19.5244267 99.17559505 C19.3793748 117.48835971 19.2193474 135.80096539 19.05053711 154.11352539 C11.79053711 154.11352539 4.53053711 154.11352539 -2.94946289 154.11352539 C-2.9725803 134.18207556 -2.9904413 114.2506295 -3.00127506 94.31916904 C-3.00643835 85.06531379 -3.01348167 75.81146701 -3.02490234 66.55761719 C-3.03484818 58.49496341 -3.04131608 50.43231577 -3.04355139 42.36965603 C-3.04485866 38.09784018 -3.04794559 33.82604188 -3.05519295 29.55423164 C-3.06195158 25.53816583 -3.06408017 21.52212488 -3.06257057 17.50605392 C-3.06284697 16.02775754 -3.06485302 14.54946038 -3.06866837 13.0711689 C-3.0736031 11.06153582 -3.07186103 9.05188958 -3.06971741 7.04225159 C-3.0706392 5.91489877 -3.07156099 4.78754595 -3.07251072 3.62603092 C-2.90320879 0.16906601 -2.90320879 0.16906601 0 0 Z " transform="translate(639.949462890625,590.886474609375)" style="fill: #D6111F;"/><path d="M0 0 C1 1 1 1 1.11352539 3.13305664 C1.10828857 4.04949951 1.10305176 4.96594238 1.09765625 5.91015625 C1.09443359 6.89951172 1.09121094 7.88886719 1.08789062 8.90820312 C1.07532227 10.46958008 1.07532227 10.46958008 1.0625 12.0625 C1.05798828 13.10728516 1.05347656 14.15207031 1.04882812 15.22851562 C1.03699913 17.8190666 1.02051689 20.40950559 1 23 C-0.143479 23.15287476 -0.143479 23.15287476 -1.31005859 23.30883789 C-9.38636543 24.44573677 -15.35159042 26.82000276 -20.875 32.9375 C-24.50311283 38.16625085 -25.34730281 43.27557703 -25.625 49.52734375 C-25.66294678 50.28941635 -25.70089355 51.05148895 -25.73999023 51.83665466 C-26.27879068 64.40018909 -26.06599509 76.99122121 -26 89.5625 C-25.97348952 94.73046626 -25.95352635 99.89839815 -25.9375 105.06640625 C-25.92920166 106.2515834 -25.92090332 107.43676056 -25.91235352 108.65785217 C-25.90905029 109.74086105 -25.90574707 110.82386993 -25.90234375 111.93969727 C-25.89448853 113.37382713 -25.89448853 113.37382713 -25.88647461 114.83692932 C-26 117 -26 117 -27 118 C-28.63472882 118.08700342 -30.27314055 118.10701063 -31.91015625 118.09765625 C-32.89951172 118.09443359 -33.88886719 118.09121094 -34.90820312 118.08789062 C-35.94912109 118.07951172 -36.99003906 118.07113281 -38.0625 118.0625 C-39.10728516 118.05798828 -40.15207031 118.05347656 -41.22851562 118.04882812 C-43.8190666 118.03699913 -46.40950559 118.02051689 -49 118 C-49.13089205 104.4651414 -49.26131726 90.93027838 -49.39115143 77.39540958 C-49.45145728 71.11020247 -49.51192211 64.82499697 -49.57275391 58.53979492 C-49.63148655 52.47086884 -49.68979683 46.40193883 -49.74781799 40.33300591 C-49.76999463 38.02104994 -49.79232179 35.70909542 -49.81480408 33.39714241 C-49.84633921 30.15156545 -49.87733242 26.90598373 -49.90820312 23.66040039 C-49.91755386 22.71093033 -49.9269046 21.76146027 -49.9365387 20.78321838 C-49.95306732 19.02341003 -49.96771082 17.26358255 -49.9801178 15.50374031 C-49.9936945 13.79404313 -50.01421508 12.08439057 -50.04075623 10.3748455 C-50.06431509 8.24998417 -50.03721076 6.1246661 -50 4 C-48.41062444 2.41062444 -46.76100154 2.87018857 -44.5625 2.8671875 C-43.66789063 2.86589844 -42.77328125 2.86460937 -41.8515625 2.86328125 C-40.91054688 2.86714844 -39.96953125 2.87101563 -39 2.875 C-37.58847656 2.86919922 -37.58847656 2.86919922 -36.1484375 2.86328125 C-34.80652344 2.86521484 -34.80652344 2.86521484 -33.4375 2.8671875 C-32.61121094 2.86831543 -31.78492188 2.86944336 -30.93359375 2.87060547 C-29 3 -29 3 -28 4 C-27.54540142 6.65463121 -27.29756762 9.32189138 -27 12 C-26.278125 11.2575 -25.55625 10.515 -24.8125 9.75 C-17.36659257 2.46955718 -10.49239978 -0.74945713 0 0 Z " transform="translate(1000,627)" style="fill: #D6131E;"/><path d="M0 0 C7.26 0 14.52 0 22 0 C22.65127602 3.9076561 23.12515214 6.97920913 23.12698364 10.81489563 C23.12980347 11.73042709 23.13262329 12.64595856 23.13552856 13.5892334 C23.13350433 14.57597046 23.1314801 15.56270752 23.12939453 16.5793457 C23.13114685 17.63200119 23.13289917 18.68465668 23.13470459 19.76921082 C23.13909545 23.23808454 23.1361959 26.70690704 23.1328125 30.17578125 C23.13348608 32.586197 23.13445656 34.99661268 23.13571167 37.4070282 C23.13718468 42.45145313 23.13504586 47.49586033 23.13037109 52.5402832 C23.12465874 59.02166552 23.12796483 65.50300657 23.13394356 71.9843874 C23.13754683 76.95729385 23.13641193 81.93019041 23.13381577 86.90309715 C23.13314664 89.2942321 23.13397442 91.68536793 23.13629532 94.07650185 C23.13881965 97.40690132 23.13498506 100.73723259 23.12939453 104.06762695 C23.13141876 105.06448517 23.13344299 106.06134338 23.13552856 107.08840942 C23.13129883 108.44055794 23.13129883 108.44055794 23.12698364 109.82002258 C23.12660662 110.60773702 23.12622959 111.39545145 23.12584114 112.20703602 C23 114 23 114 22 115 C14.74 115 7.48 115 0 115 C0 77.05 0 39.1 0 0 Z " transform="translate(1136,630)" style="fill: #D50E1A;"/><path d="M0 0 C0.67998047 -0.00386719 1.35996094 -0.00773438 2.06054688 -0.01171875 C7.06075175 -0.00174825 7.06075175 -0.00174825 8.1875 1.125 C8.27463831 2.83272358 8.29450007 4.54398649 8.28515625 6.25390625 C8.28193359 7.28837891 8.27871094 8.32285156 8.27539062 9.38867188 C8.26701172 10.47728516 8.25863281 11.56589844 8.25 12.6875 C8.24548828 13.77998047 8.24097656 14.87246094 8.23632812 15.99804688 C8.2244984 18.70705432 8.20656231 21.4160338 8.1875 24.125 C0.9275 24.125 -6.3325 24.125 -13.8125 24.125 C-13.8125 16.535 -13.8125 8.945 -13.8125 1.125 C-8.9850886 0.32043143 -4.84982123 -0.00951879 0 0 Z " transform="translate(1149.8125,590.875)" style="fill: #CE1524;"/></svg>